<?xml version="1.0" encoding="UTF-8" standalone="no"?>
<svg
   xmlns:dc="http://purl.org/dc/elements/1.1/"
   xmlns:cc="http://creativecommons.org/ns#"
   xmlns:rdf="http://www.w3.org/1999/02/22-rdf-syntax-ns#"
   xmlns:svg="http://www.w3.org/2000/svg"
   xmlns="http://www.w3.org/2000/svg"
   xmlns:xlink="http://www.w3.org/1999/xlink"
   xmlns:sodipodi="http://sodipodi.sourceforge.net/DTD/sodipodi-0.dtd"
   xmlns:inkscape="http://www.inkscape.org/namespaces/inkscape"
   version="1.1"
   id="content"
   x="0px"
   y="0px"
   viewBox="0 0 1376.5 171.5"
   style="enable-background:new 0 0 1376.5 171.5;"
   xml:space="preserve"
   sodipodi:docname="Google Open Source - Horizontal - Gray Text - No Shading.svg"
   inkscape:version="0.92.2 5c3e80d, 2017-08-06"><metadata
     id="metadata1002"><rdf:RDF><cc:Work
         rdf:about=""><dc:format>image/svg+xml</dc:format><dc:type
           rdf:resource="http://purl.org/dc/dcmitype/StillImage" /><dc:title></dc:title></cc:Work></rdf:RDF></metadata><defs
     id="defs1000"><clipPath
       id="clipPath2991"
       clipPathUnits="userSpaceOnUse"><path
         inkscape:connector-curvature="0"
         id="path2989"
         d="M 0,0 H 336 V 336 H 0 Z" /></clipPath><clipPath
       id="clipPath3003"
       clipPathUnits="userSpaceOnUse"><path
         inkscape:connector-curvature="0"
         id="path3001"
         d="m 126,83 h 84 V 0 h -84 z" /></clipPath><clipPath
       id="clipPath3009"
       clipPathUnits="userSpaceOnUse"><path
         inkscape:connector-curvature="0"
         id="path3007"
         d="m 139,12 c -10.352,10.352 -14.402,25.5 -10.652,39.676 1.875,6.972 5.55,13.347 10.652,18.449 7.723,7.727 18.074,12 29.023,12 10.95,0 21.301,-4.273 29.024,-12 15.976,-16.051 15.976,-42.074 0,-58.051 -7.723,-7.722 -18.074,-12 -29.024,-12 C 157.074,0 146.723,4.273 139,12 Z m 18.375,39.676 C 155.5,49.801 154.148,47.551 153.473,45 c -1.348,-5.176 0.152,-10.727 3.902,-14.551 5.625,-5.699 15.598,-5.699 21.223,0 5.851,5.852 5.851,15.375 0,21.227 -2.848,2.847 -6.598,4.426 -10.649,4.426 -3.902,0 -7.726,-1.579 -10.574,-4.426 z" /></clipPath><clipPath
       id="clipPath3019"
       clipPathUnits="userSpaceOnUse"><path
         inkscape:connector-curvature="0"
         id="path3017"
         d="m 126,0 h 84 v 80 h -84 z" /></clipPath><clipPath
       id="clipPath3037"
       clipPathUnits="userSpaceOnUse"><path
         inkscape:connector-curvature="0"
         id="path3035"
         d="m 253,210 h 83 v -83 h -83 z" /></clipPath><clipPath
       id="clipPath3043"
       clipPathUnits="userSpaceOnUse"><path
         inkscape:connector-curvature="0"
         id="path3041"
         d="m 265.898,138.977 c -10.351,10.347 -14.398,25.5 -10.648,39.671 1.875,6.977 5.547,13.352 10.648,18.454 16.051,16.046 42.075,16.046 58.051,0 16.051,-15.977 16.051,-42.079 0,-58.051 -8.027,-8.028 -18.527,-12 -29.027,-12 -10.5,-0.074 -21,3.898 -29.024,11.926 z m 18.45,39.597 c -1.875,-1.875 -3.223,-4.199 -3.899,-6.75 -1.351,-5.176 0.074,-10.722 3.899,-14.472 5.851,-5.852 15.375,-5.852 21.226,0 5.848,5.847 5.848,15.375 0,21.222 -2.926,2.926 -6.75,4.426 -10.652,4.426 -3.824,0 -7.649,-1.426 -10.574,-4.426 z" /></clipPath><clipPath
       id="clipPath3053"
       clipPathUnits="userSpaceOnUse"><path
         inkscape:connector-curvature="0"
         id="path3051"
         d="m 253,124 h 83 v 83 h -83 z" /></clipPath><clipPath
       id="clipPath3071"
       clipPathUnits="userSpaceOnUse"><path
         inkscape:connector-curvature="0"
         id="path3069"
         d="m 126,336 h 84 v -83 h -84 z" /></clipPath><clipPath
       id="clipPath3077"
       clipPathUnits="userSpaceOnUse"><path
         inkscape:connector-curvature="0"
         id="path3075"
         d="m 139,265.875 c -10.352,10.352 -14.402,25.5 -10.652,39.676 1.875,6.972 5.55,13.347 10.652,18.449 7.723,7.727 18.074,12 29.023,12 10.95,0 21.301,-4.273 29.024,-12 15.976,-15.977 15.976,-42.074 0,-58.051 -8.024,-8.023 -18.524,-12 -29.024,-12 -10.5,0 -21,3.903 -29.023,11.926 z m 18.375,39.676 c -1.875,-1.875 -3.227,-4.125 -3.902,-6.676 -1.348,-5.176 0.152,-10.727 3.902,-14.551 5.848,-5.847 15.375,-5.847 21.223,0 5.851,5.852 5.851,15.375 0,21.227 -2.848,2.847 -6.598,4.426 -10.649,4.426 -3.902,0 -7.726,-1.579 -10.574,-4.426 z" /></clipPath><clipPath
       id="clipPath3087"
       clipPathUnits="userSpaceOnUse"><path
         inkscape:connector-curvature="0"
         id="path3085"
         d="m 126,251 h 84 v 83 h -84 z" /></clipPath><clipPath
       id="clipPath3105"
       clipPathUnits="userSpaceOnUse"><path
         inkscape:connector-curvature="0"
         id="path3103"
         d="M 0,210 H 83 V 127 H 0 Z" /></clipPath><clipPath
       id="clipPath3111"
       clipPathUnits="userSpaceOnUse"><path
         inkscape:connector-curvature="0"
         id="path3109"
         d="m 12.023,138.977 c -10.351,10.347 -14.398,25.5 -10.648,39.671 1.875,6.977 5.547,13.352 10.648,18.454 16.051,16.046 42.075,16.046 58.051,0 16.051,-15.977 16.051,-42.079 0,-58.051 -8.027,-8.028 -18.527,-12 -29.027,-12 -10.5,-0.074 -21,3.898 -29.024,11.926 z m 18.45,39.597 c -1.875,-1.875 -3.223,-4.199 -3.899,-6.75 -1.351,-5.176 0.074,-10.722 3.899,-14.472 5.851,-5.852 15.375,-5.852 21.226,0 5.848,5.847 5.848,15.375 0,21.222 -2.926,2.926 -6.75,4.426 -10.652,4.426 -3.824,0 -7.649,-1.426 -10.574,-4.426 z" /></clipPath><clipPath
       id="clipPath3121"
       clipPathUnits="userSpaceOnUse"><path
         inkscape:connector-curvature="0"
         id="path3119"
         d="m 0,124 h 83 v 83 H 0 Z" /></clipPath></defs><sodipodi:namedview
     pagecolor="#ffffff"
     bordercolor="#666666"
     borderopacity="1"
     objecttolerance="10"
     gridtolerance="10"
     guidetolerance="10"
     inkscape:pageopacity="0"
     inkscape:pageshadow="2"
     inkscape:window-width="1337"
     inkscape:window-height="760"
     id="namedview998"
     showgrid="false"
     showguides="false"
     inkscape:guide-bbox="true"
     inkscape:zoom="1"
     inkscape:cx="364.04743"
     inkscape:cy="14.648841"
     inkscape:window-x="0"
     inkscape:window-y="0"
     inkscape:window-maximized="0"
     inkscape:current-layer="_x3C_Group_x3E_"><sodipodi:guide
       position="86.03125,169.93827"
       orientation="0,1"
       id="guide1008"
       inkscape:locked="false" /><sodipodi:guide
       position="1.5931713,86.03125"
       orientation="1,0"
       id="guide1012"
       inkscape:locked="false" /><sodipodi:guide
       position="169.40721,84.969136"
       orientation="1,0"
       id="guide1014"
       inkscape:locked="false" /><sodipodi:guide
       position="85.053938,1.5020563"
       orientation="0,1"
       id="guide1016"
       inkscape:locked="false" /></sodipodi:namedview><style
     type="text/css"
     id="style815">
.st0{fill:none;}
.st1{clip-path:url(#_x3C_Rectangle_x3E__1_);}
.st2{fill:#34A853;}
.st3{clip-path:url(#SVGID_2_);fill:#FFFFFF;}
.st4{opacity:0.13;clip-path:url(#SVGID_2_);}
.st5{opacity:0.3;fill:#FFFFFF;}
.st6{clip-path:url(#SVGID_4_);fill:#34A853;}
.st7{fill:#4285F4;}
.st8{clip-path:url(#SVGID_6_);fill:#FFFFFF;}
.st9{opacity:0.13;clip-path:url(#SVGID_6_);}
.st10{clip-path:url(#SVGID_8_);fill:#4285F4;}
.st11{fill:#EA4335;}
.st12{clip-path:url(#SVGID_10_);fill:#FFFFFF;}
.st13{opacity:0.13;clip-path:url(#SVGID_10_);}
.st14{clip-path:url(#SVGID_12_);fill:#EA4335;}
.st15{fill:#FBBC05;}
.st16{clip-path:url(#SVGID_14_);fill:#FFFFFF;}
.st17{opacity:0.13;clip-path:url(#SVGID_14_);}
.st18{clip-path:url(#SVGID_16_);fill:#FBBC05;}
.st19{opacity:0.2;fill:none;}
.st20{opacity:0.54;clip-path:url(#_x3C_Rectangle_x3E__1_);}
</style><symbol
     id="logo_x5F_dark"
     viewBox="0 -136 416 136"><path
       d="M0.7-52.6C0.7-23.6,25-0.1,54-0.1c16,0,27.4-6.3,36-14.5L79.8-24.7C73.7-18.9,65.4-14.4,54-14.4c-21.1,0-37.6-17-37.6-38.1 c0-21.1,16.5-38.1,37.6-38.1c13.7,0,21.5,5.5,26.5,10.5c4.1,4.1,6.8,10,7.8,18H54v14.3h48.3c0.5-2.6,0.8-5.6,0.8-9 c0-10.8-2.9-24.1-12.4-33.5C81.4-99.9,69.6-105,54-105C25-105,0.7-81.5,0.7-52.6z"
       id="path817" /><path
       d="M142-37.5c-18.7,0-33.9-14.2-33.9-33.8c0-19.5,15.2-33.8,33.9-33.8c18.7,0,33.9,14.3,33.9,33.8 C175.9-51.7,160.7-37.5,142-37.5z M142-91.7c-10.2,0-19.1,8.4-19.1,20.5c0,12.2,8.8,20.5,19.1,20.5c10.2,0,19.1-8.3,19.1-20.5 C161.1-83.3,152.2-91.7,142-91.7z"
       id="path819" /><path
       d="M216-37.5c-18.7,0-33.9-14.2-33.9-33.8c0-19.5,15.2-33.8,33.9-33.8c18.7,0,33.9,14.3,33.9,33.8 C249.9-51.7,234.7-37.5,216-37.5z M216-91.7c-10.2,0-19.1,8.4-19.1,20.5c0,12.2,8.8,20.5,19.1,20.5s19.1-8.3,19.1-20.5 C235.1-83.3,226.2-91.7,216-91.7z"
       id="path821" /><path
       d="M306.8-39.5V-45h-0.5c-3.3,4-9.7,7.6-17.8,7.6c-16.9,0-32.4-14.8-32.4-33.9c0-18.9,15.5-33.7,32.4-33.7 c8.1,0,14.5,3.6,17.8,7.7h0.5v-4.9c0-12.9-6.9-19.8-18-19.8c-9.1,0-14.7,6.5-17,12l-12.9-5.4c3.7-9,13.6-20,30-20 c17.4,0,32.1,10.2,32.1,35.2v60.7H306.8z M289.8-91.7c-10.2,0-18.8,8.6-18.8,20.4c0,11.9,8.6,20.6,18.8,20.6c10.1,0,18-8.7,18-20.6 C307.9-83.2,299.9-91.7,289.8-91.7z"
       id="path823" /><rect
       x="331.2"
       y="-103"
       width="14.8"
       height="99.3"
       id="rect825" /><path
       d="M386.7-91.7c-7.6,0-12.9,3.5-16.4,10.2l45.2,18.7L414-59c-2.8,7.6-11.4,21.5-28.9,21.5c-17.4,0-31.9-13.7-31.9-33.8 c0-18.9,14.3-33.8,33.5-33.8c15.5,0,24.4,9.5,28.2,15l-11.5,7.7C399.5-88,394.3-91.7,386.7-91.7z M385.6-50.5 c5.9,0,10.9-2.9,12.5-7.2l-30.2-12.5C367.5-57.2,378-50.5,385.6-50.5z"
       id="path827" /><rect
       y="-136"
       class="st0"
       width="416"
       height="136"
       id="rect829" /></symbol><g
     id="_x3C_Group_x3E_"><defs
       id="defs833"><rect
         id="_x3C_Rectangle_x3E_"
         x="-126.5"
         y="-138"
         width="1630"
         height="448" /></defs><clipPath
       id="_x3C_Rectangle_x3E__1_"><use
         xlink:href="#_x3C_Rectangle_x3E_"
         style="overflow:visible"
         id="use835"
         x="0"
         y="0"
         width="100%"
         height="100%" /></clipPath><g
       class="st20"
       clip-path="url(#_x3C_Rectangle_x3E__1_)"
       id="g994"
       style="opacity:0.54000005"><g
         id="g990"><path
           d="m 746.1,122.2 c -9,9.3 -20.2,13.9 -33.6,13.9 -13.4,0 -24.6,-4.6 -33.6,-13.9 -9,-9.3 -13.5,-20.6 -13.5,-34 0,-13.4 4.5,-24.7 13.5,-34 9,-9.3 20.2,-13.9 33.6,-13.9 13.3,0 24.5,4.7 33.5,14 9,9.3 13.6,20.6 13.6,33.9 0,13.4 -4.5,24.7 -13.5,34 z m -58.5,-7.7 c 6.8,6.9 15.1,10.3 24.9,10.3 9.8,0 18.1,-3.4 24.9,-10.3 6.8,-6.9 10.2,-15.6 10.2,-26.3 0,-10.7 -3.4,-19.4 -10.2,-26.3 -6.8,-6.9 -15.1,-10.3 -24.9,-10.3 -9.8,0 -18.1,3.4 -24.9,10.3 -6.8,6.9 -10.2,15.6 -10.2,26.3 0.1,10.7 3.5,19.4 10.2,26.3 z"
           id="path970"
           inkscape:connector-curvature="0" /><path
           d="m 802.5,136.1 c -4.8,0 -9.1,-1 -12.9,-3.1 -3.8,-2 -6.6,-4.6 -8.5,-7.7 h -0.5 l 0.5,8.7 v 27.6 H 769.3 V 71.3 h 11.3 V 80 h 0.5 c 1.9,-3.1 4.7,-5.6 8.5,-7.7 3.8,-2 8.1,-3.1 12.9,-3.1 8.1,0 15.1,3.2 21,9.6 5.9,6.4 8.8,14.3 8.8,23.8 0,9.5 -2.9,17.4 -8.8,23.8 -5.9,6.5 -12.9,9.7 -21,9.7 z m -1.9,-10.8 c 5.5,0 10.2,-2.1 14.1,-6.2 3.9,-4.1 5.9,-9.6 5.9,-16.4 0,-6.8 -2,-12.3 -5.9,-16.4 -3.9,-4.1 -8.6,-6.2 -14.1,-6.2 -5.5,0 -10.3,2 -14.1,6.1 -3.9,4.1 -5.8,9.6 -5.8,16.5 0,6.9 1.9,12.4 5.8,16.5 3.8,4.1 8.6,6.1 14.1,6.1 z"
           id="path972"
           inkscape:connector-curvature="0" /><path
           d="m 869.9,136.1 c -9.5,0 -17.2,-3.2 -23.1,-9.5 -5.9,-6.3 -8.9,-14.3 -8.9,-23.9 0,-9.1 2.9,-17 8.6,-23.6 5.8,-6.6 13.1,-9.9 22.1,-9.9 9.3,0 16.7,3 22.3,9.1 5.6,6.1 8.4,14.2 8.4,24.3 l -0.1,2.2 h -49.5 c 0.3,6.3 2.5,11.3 6.3,15 3.9,3.7 8.4,5.5 13.6,5.5 8.4,0 14.2,-3.6 17.2,-10.8 l 10.5,4.4 c -2,4.9 -5.4,8.9 -10.1,12.2 -4.8,3.3 -10.5,5 -17.3,5 z m 16.8,-41 c -0.3,-3.6 -1.9,-7 -4.9,-10.2 -3,-3.2 -7.5,-4.9 -13.5,-4.9 -4.4,0 -8.1,1.4 -11.3,4.1 -3.2,2.7 -5.4,6.4 -6.6,11 z"
           id="path974"
           inkscape:connector-curvature="0" /><path
           d="M 919.6,71.3 V 80 h 0.5 c 1.7,-3 4.4,-5.5 8.1,-7.6 3.7,-2.1 7.6,-3.1 11.8,-3.1 7.8,0 13.7,2.4 17.8,7.2 4.1,4.8 6.1,11.2 6.1,19.2 V 134 H 952.1 V 97.4 c 0,-11.6 -5.2,-17.4 -15.5,-17.4 -4.9,0 -8.8,1.9 -11.9,5.8 -3.1,3.9 -4.6,8.4 -4.6,13.5 V 134 H 908.3 V 71.3 Z"
           id="path976"
           inkscape:connector-curvature="0" /><path
           d="m 1032.5,136.1 c -6.7,0 -13.2,-2.2 -19.5,-6.5 -6.4,-4.4 -10.5,-10.5 -12.5,-18.3 l 10.8,-4.4 c 1.3,5 3.9,9.3 7.9,12.7 4,3.5 8.4,5.2 13.4,5.2 5.1,0 9.5,-1.3 13.1,-4 3.6,-2.7 5.4,-6.3 5.4,-10.9 0,-5.1 -1.8,-9.1 -5.4,-11.8 -3.6,-2.8 -9.4,-5.4 -17.2,-7.7 -8.1,-2.6 -14.3,-5.9 -18.4,-9.9 -4.2,-4.1 -6.3,-9.2 -6.3,-15.6 0,-6.6 2.6,-12.3 7.8,-17.2 5.2,-4.9 12,-7.3 20.4,-7.3 7.8,0 14.1,1.9 18.9,5.8 4.9,3.9 8,8.1 9.5,12.7 l -10.8,4.5 c -0.8,-2.9 -2.7,-5.6 -5.7,-8.1 -3,-2.5 -6.9,-3.7 -11.7,-3.7 -4.5,0 -8.4,1.3 -11.6,3.8 -3.2,2.5 -4.8,5.7 -4.8,9.4 0,3.4 1.5,6.3 4.4,8.6 2.9,2.3 7.3,4.5 13,6.3 4.5,1.5 8.3,2.9 11.3,4.2 3,1.4 6.1,3.2 9.2,5.4 3.1,2.3 5.5,5.1 7,8.4 1.6,3.4 2.4,7.3 2.4,11.7 0,4.4 -0.9,8.4 -2.8,11.9 -1.8,3.5 -4.3,6.3 -7.3,8.3 -3,2 -6.3,3.6 -9.8,4.7 -3.4,1.2 -7,1.8 -10.7,1.8 z"
           id="path978"
           inkscape:connector-curvature="0" /><path
           d="m 1079.3,78.8 c 6.1,-6.4 13.8,-9.5 23.2,-9.5 9.4,0 17.1,3.2 23.2,9.5 6.1,6.4 9.1,14.3 9.1,23.9 0,9.6 -3,17.5 -9.1,23.9 -6.1,6.4 -13.8,9.5 -23.2,9.5 -9.4,0 -17.1,-3.2 -23.2,-9.5 -6.1,-6.4 -9.1,-14.3 -9.1,-23.9 0,-9.6 3,-17.6 9.1,-23.9 z m 8.7,40.3 c 4.1,4.1 8.9,6.2 14.4,6.2 5.5,0 10.3,-2.1 14.4,-6.2 4.1,-4.1 6.1,-9.6 6.1,-16.4 0,-6.8 -2,-12.3 -6.1,-16.4 -4.1,-4.1 -8.9,-6.2 -14.4,-6.2 -5.5,0 -10.3,2.1 -14.4,6.2 -4.1,4.1 -6.1,9.6 -6.1,16.4 0,6.8 2.1,12.3 6.1,16.4 z"
           id="path980"
           inkscape:connector-curvature="0" /><path
           d="m 1198.2,134 h -11.3 v -8.7 h -0.5 c -1.8,3 -4.5,5.5 -8.2,7.6 -3.7,2.1 -7.6,3.1 -11.6,3.1 -7.9,0 -13.8,-2.4 -17.9,-7.2 -4.1,-4.8 -6.1,-11.2 -6.1,-19.2 V 71.3 h 11.8 v 36.5 c 0,11.7 5.2,17.5 15.5,17.5 4.9,0 8.8,-2 11.9,-5.9 3.1,-3.9 4.6,-8.4 4.6,-13.6 V 71.3 h 11.8 z"
           id="path982"
           inkscape:connector-curvature="0" /><path
           d="m 1222.6,134 h -11.8 V 71.3 h 11.3 v 10.2 h 0.5 c 1.2,-3.4 3.6,-6.2 7.4,-8.4 3.7,-2.2 7.3,-3.3 10.8,-3.3 3.5,0 6.4,0.5 8.8,1.5 l -4.5,11 c -1.5,-0.6 -3.6,-0.9 -6.3,-0.9 -4.3,0 -8,1.7 -11.3,5.1 -3.3,3.4 -4.9,7.8 -4.9,13.2 z"
           id="path984"
           inkscape:connector-curvature="0" /><path
           d="m 1280.5,136.1 c -9.4,0 -17.1,-3.2 -23.2,-9.5 -6.1,-6.4 -9.1,-14.3 -9.1,-23.9 0,-9.6 3,-17.5 9.1,-23.9 6.1,-6.4 13.8,-9.5 23.2,-9.5 7,0 12.8,1.7 17.4,5.1 4.6,3.4 8,7.7 10.1,12.9 l -10.8,4.5 C 1294,84 1288.1,80 1279.7,80 c -5.2,0 -9.8,2.1 -13.8,6.4 -4,4.3 -6,9.7 -6,16.3 0,6.6 2,12 6,16.3 4,4.3 8.6,6.4 13.8,6.4 8.8,0 14.8,-3.9 18.2,-11.8 l 10.5,4.5 c -2.1,5.1 -5.6,9.4 -10.3,12.9 -4.8,3.3 -10.6,5.1 -17.6,5.1 z"
           id="path986"
           inkscape:connector-curvature="0" /><path
           d="m 1344.7,136.1 c -9.5,0 -17.2,-3.2 -23.1,-9.5 -5.9,-6.3 -8.9,-14.3 -8.9,-23.9 0,-9.1 2.9,-17 8.6,-23.6 5.8,-6.6 13.1,-9.9 22.1,-9.9 9.3,0 16.7,3 22.3,9.1 5.6,6.1 8.4,14.2 8.4,24.3 l -0.1,2.2 h -49.5 c 0.3,6.3 2.5,11.3 6.3,15 3.9,3.7 8.4,5.5 13.6,5.5 8.4,0 14.2,-3.6 17.2,-10.8 l 10.5,4.4 c -2,4.9 -5.4,8.9 -10.1,12.2 -4.7,3.3 -10.4,5 -17.3,5 z m 16.9,-41 c -0.3,-3.6 -1.9,-7 -4.9,-10.2 -3,-3.2 -7.5,-4.9 -13.5,-4.9 -4.4,0 -8.1,1.4 -11.3,4.1 -3.2,2.7 -5.4,6.4 -6.6,11 z"
           id="path988"
           inkscape:connector-curvature="0" /></g><use
         xlink:href="#logo_x5F_dark"
         width="416"
         height="136"
         y="-136"
         transform="matrix(1,0,0,-1,217.9307,31)"
         style="overflow:visible"
         id="use992"
         x="0" /></g><symbol
       id="logo_x5F_dark-7"
       viewBox="0 -136 416 136"
       transform="translate(-87.98416,-517.5)"><path
         d="m 0.7,-52.6 c 0,29 24.3,52.5 53.3,52.5 16,0 27.4,-6.3 36,-14.5 L 79.8,-24.7 c -6.1,5.8 -14.4,10.3 -25.8,10.3 -21.1,0 -37.6,-17 -37.6,-38.1 0,-21.1 16.5,-38.1 37.6,-38.1 13.7,0 21.5,5.5 26.5,10.5 4.1,4.1 6.8,10 7.8,18 H 54 v 14.3 h 48.3 c 0.5,-2.6 0.8,-5.6 0.8,-9 0,-10.8 -2.9,-24.1 -12.4,-33.5 C 81.4,-99.9 69.6,-105 54,-105 25,-105 0.7,-81.5 0.7,-52.6 Z"
         id="path6"
         inkscape:connector-curvature="0" /><path
         d="m 142,-37.5 c -18.7,0 -33.9,-14.2 -33.9,-33.8 0,-19.5 15.2,-33.8 33.9,-33.8 18.7,0 33.9,14.3 33.9,33.8 0,19.6 -15.2,33.8 -33.9,33.8 z m 0,-54.2 c -10.2,0 -19.1,8.4 -19.1,20.5 0,12.2 8.8,20.5 19.1,20.5 10.2,0 19.1,-8.3 19.1,-20.5 0,-12.1 -8.9,-20.5 -19.1,-20.5 z"
         id="path8"
         inkscape:connector-curvature="0" /><path
         d="m 216,-37.5 c -18.7,0 -33.9,-14.2 -33.9,-33.8 0,-19.5 15.2,-33.8 33.9,-33.8 18.7,0 33.9,14.3 33.9,33.8 0,19.6 -15.2,33.8 -33.9,33.8 z m 0,-54.2 c -10.2,0 -19.1,8.4 -19.1,20.5 0,12.2 8.8,20.5 19.1,20.5 10.3,0 19.1,-8.3 19.1,-20.5 0,-12.1 -8.9,-20.5 -19.1,-20.5 z"
         id="path10"
         inkscape:connector-curvature="0" /><path
         d="M 306.8,-39.5 V -45 h -0.5 c -3.3,4 -9.7,7.6 -17.8,7.6 -16.9,0 -32.4,-14.8 -32.4,-33.9 0,-18.9 15.5,-33.7 32.4,-33.7 8.1,0 14.5,3.6 17.8,7.7 h 0.5 v -4.9 c 0,-12.9 -6.9,-19.8 -18,-19.8 -9.1,0 -14.7,6.5 -17,12 l -12.9,-5.4 c 3.7,-9 13.6,-20 30,-20 17.4,0 32.1,10.2 32.1,35.2 v 60.7 z m -17,-52.2 c -10.2,0 -18.8,8.6 -18.8,20.4 0,11.9 8.6,20.6 18.8,20.6 10.1,0 18,-8.7 18,-20.6 0.1,-11.9 -7.9,-20.4 -18,-20.4 z"
         id="path12"
         inkscape:connector-curvature="0" /><rect
         x="331.20001"
         y="-103"
         width="14.8"
         height="99.300003"
         id="rect14" /><path
         d="m 386.7,-91.7 c -7.6,0 -12.9,3.5 -16.4,10.2 l 45.2,18.7 -1.5,3.8 c -2.8,7.6 -11.4,21.5 -28.9,21.5 -17.4,0 -31.9,-13.7 -31.9,-33.8 0,-18.9 14.3,-33.8 33.5,-33.8 15.5,0 24.4,9.5 28.2,15 l -11.5,7.7 c -3.9,-5.6 -9.1,-9.3 -16.7,-9.3 z m -1.1,41.2 c 5.9,0 10.9,-2.9 12.5,-7.2 l -30.2,-12.5 c -0.4,13 10.1,19.7 17.7,19.7 z"
         id="path16"
         inkscape:connector-curvature="0" /><rect
         y="-136"
         class="st0"
         width="416"
         height="136"
         id="rect18"
         x="0"
         style="fill:none" /></symbol><g
       transform="matrix(0.49944694,0,0,-0.50129826,1.593039,169.99794)"
       inkscape:label="Google Open Source Icon - Original Color - No Shading"
       id="g2979"><g
         id="g2981"><g
           id="g2983"><g
             id="g2985"><g
               clip-path="url(#clipPath2991)"
               id="g2987"><g
                 id="g2993"><path
                   inkscape:connector-curvature="0"
                   id="path2995"
                   style="fill:#34a853;fill-opacity:1;fill-rule:nonzero;stroke:none"
                   d="m 139,12 c -10.352,10.352 -14.402,25.5 -10.652,39.676 1.875,6.972 5.55,13.347 10.652,18.449 7.723,7.727 18.074,12 29.023,12 10.95,0 21.301,-4.273 29.024,-12 16.051,-15.977 16.051,-42.074 0,-58.051 -7.723,-7.722 -18.074,-12 -29.024,-12 C 157.074,0 146.723,4.273 139,12 Z m 18.375,39.676 c -1.875,-1.875 -3.227,-4.199 -3.902,-6.75 -1.348,-5.176 0.074,-10.727 3.902,-14.477 5.699,-5.699 15.598,-5.699 21.223,0 5.851,5.852 5.851,15.375 0,21.227 -2.848,2.847 -6.598,4.426 -10.649,4.426 -3.902,0 -7.726,-1.579 -10.574,-4.426 z" /></g><g
                 id="g2997"><g
                   clip-path="url(#clipPath3003)"
                   id="g2999"><g
                     clip-path="url(#clipPath3009)"
                     id="g3005"><g
                       id="g3011"><g
                         id="g3013"><g
                           clip-path="url(#clipPath3019)"
                           id="g3015"><g
                             id="g3021"><path
                               inkscape:connector-curvature="0"
                               id="path3023"
                               style="fill:#34a853;fill-opacity:1;fill-rule:nonzero;stroke:none"
                               d="m 168.023,-2.625 c 10.95,0 21.301,4.273 29.024,12 15.976,16.051 15.976,42.074 0,58.051 -7.723,7.722 -18.074,12 -29.024,12 -10.949,0 -21.3,-4.278 -29.023,-12 -5.102,-5.102 -8.777,-11.477 -10.652,-18.449 -3.75,-14.176 0.3,-29.329 10.652,-39.676 7.723,-7.653 18.074,-11.926 29.023,-11.926 z" /></g></g></g></g></g></g></g><g
                 id="g3025"><path
                   inkscape:connector-curvature="0"
                   id="path3027"
                   style="fill:#34a853;fill-opacity:1;fill-rule:nonzero;stroke:none"
                   d="m 171.855,63.301 65.125,65.125 18.403,-18.403 -65.125,-65.125 z" /><path
                   inkscape:connector-curvature="0"
                   id="path3029"
                   style="fill:#4285f4;fill-opacity:1;fill-rule:nonzero;stroke:none"
                   d="m 265.898,138.977 c -10.351,10.347 -14.398,25.5 -10.648,39.671 1.875,6.977 5.547,13.352 10.648,18.454 7.727,7.722 18.075,12 29.024,12 10.953,0 21.301,-4.278 29.027,-12 7.723,-7.727 12,-18.079 12,-29.028 0,-10.949 -4.277,-21.301 -12,-29.023 -8.027,-8.028 -18.527,-12 -29.027,-12 -10.5,-0.074 -21,3.898 -29.024,11.926 z m 18.45,39.597 c -1.875,-1.875 -3.223,-4.199 -3.899,-6.676 -1.351,-5.171 0.074,-10.722 3.899,-14.546 5.851,-5.852 15.375,-5.852 21.226,0 2.848,2.847 4.426,6.597 4.426,10.648 0,3.977 -1.578,7.801 -4.426,10.648 -2.851,2.852 -6.601,4.426 -10.652,4.426 -3.973,-0.074 -7.723,-1.648 -10.574,-4.5 z" /></g><g
                 id="g3031"><g
                   clip-path="url(#clipPath3037)"
                   id="g3033"><g
                     clip-path="url(#clipPath3043)"
                     id="g3039"><g
                       id="g3045"><g
                         id="g3047"><g
                           clip-path="url(#clipPath3053)"
                           id="g3049"><g
                             id="g3055"><path
                               inkscape:connector-curvature="0"
                               id="path3057"
                               style="fill:#4285f4;fill-opacity:1;fill-rule:nonzero;stroke:none"
                               d="m 294.922,124.352 c 10.5,0 21,3.972 29.027,12 16.051,15.972 16.051,42.074 0,58.046 -15.976,16.051 -42.074,16.051 -58.051,0 -5.101,-5.097 -8.773,-11.472 -10.648,-18.449 -3.75,-14.097 0.297,-29.324 10.648,-39.676 8.024,-7.949 18.524,-11.921 29.024,-11.921 z" /></g></g></g></g></g></g></g><g
                 id="g3059"><path
                   inkscape:connector-curvature="0"
                   id="path3061"
                   style="fill:#4285f4;fill-opacity:1;fill-rule:nonzero;stroke:none"
                   d="m 207.582,236.953 18.402,18.402 65.125,-65.121 -18.402,-18.402 z" /><path
                   inkscape:connector-curvature="0"
                   id="path3063"
                   style="fill:#ea4335;fill-opacity:1;fill-rule:nonzero;stroke:none"
                   d="m 139,265.875 c -10.352,10.352 -14.402,25.5 -10.652,39.676 1.875,6.972 5.55,13.347 10.652,18.449 7.723,7.727 18.074,12 29.023,12 10.95,0 21.301,-4.273 29.024,-12 7.726,-7.727 12,-18.074 12,-29.023 0,-10.954 -4.274,-21.301 -12,-29.028 -8.024,-8.023 -18.524,-12 -29.024,-12 -10.5,-0.074 -21,3.903 -29.023,11.926 z m 18.449,39.676 c -1.875,-1.875 -3.226,-4.199 -3.902,-6.75 -1.348,-5.176 0.078,-10.727 3.902,-14.551 5.848,-5.852 15.375,-5.852 21.223,0 2.851,2.852 4.426,6.602 4.426,10.648 0,4.051 -1.575,7.801 -4.426,10.653 -2.848,2.847 -6.598,4.426 -10.649,4.426 -3.976,0 -7.8,-1.579 -10.574,-4.426 z" /></g><g
                 id="g3065"><g
                   clip-path="url(#clipPath3071)"
                   id="g3067"><g
                     clip-path="url(#clipPath3077)"
                     id="g3073"><g
                       id="g3079"><g
                         id="g3081"><g
                           clip-path="url(#clipPath3087)"
                           id="g3083"><g
                             id="g3089"><path
                               inkscape:connector-curvature="0"
                               id="path3091"
                               style="fill:#ea4335;fill-opacity:1;fill-rule:nonzero;stroke:none"
                               d="m 168.023,251.25 c 10.5,0 21,3.977 29.024,12 15.976,16.051 15.976,42.074 0,58.051 -7.723,7.722 -18.074,12 -29.024,12 -10.949,0 -21.3,-4.278 -29.023,-12 -5.102,-5.102 -8.777,-11.477 -10.652,-18.449 -3.75,-14.176 0.3,-29.329 10.652,-39.676 8.023,-7.875 18.523,-11.926 29.023,-11.926 z" /></g></g></g></g></g></g></g><g
                 id="g3093"><path
                   inkscape:connector-curvature="0"
                   id="path3095"
                   style="fill:#ea4335;fill-opacity:1;fill-rule:nonzero;stroke:none"
                   d="m 80.656,225.965 65.125,65.125 18.403,-18.402 -65.125,-65.126 z" /><path
                   inkscape:connector-curvature="0"
                   id="path3097"
                   style="fill:#fbbc05;fill-opacity:1;fill-rule:nonzero;stroke:none"
                   d="m 12.023,138.977 c -10.351,10.347 -14.398,25.5 -10.648,39.671 1.875,6.977 5.547,13.352 10.648,18.454 7.727,7.722 18.075,12 29.024,12 10.953,0 21.301,-4.278 29.027,-12 7.723,-7.727 12,-18.079 12,-29.028 0,-10.949 -4.277,-21.301 -12,-29.023 -8.027,-8.028 -18.527,-12 -29.027,-12 -10.5,-0.074 -21,3.898 -29.024,11.926 z m 18.45,39.597 c -1.875,-1.875 -3.223,-4.199 -3.899,-6.75 -1.351,-5.176 0.074,-10.722 3.899,-14.551 5.851,-5.847 15.375,-5.847 21.226,0 2.848,2.852 4.426,6.602 4.426,10.653 0,3.972 -1.578,7.801 -4.426,10.648 -2.851,2.852 -6.601,4.426 -10.652,4.426 -3.973,0 -7.723,-1.574 -10.574,-4.426 z" /></g><g
                 id="g3099"><g
                   clip-path="url(#clipPath3105)"
                   id="g3101"><g
                     clip-path="url(#clipPath3111)"
                     id="g3107"><g
                       id="g3113"><g
                         id="g3115"><g
                           clip-path="url(#clipPath3121)"
                           id="g3117"><g
                             id="g3123"><path
                               inkscape:connector-curvature="0"
                               id="path3125"
                               style="fill:#fbbc05;fill-opacity:1;fill-rule:nonzero;stroke:none"
                               d="m 41.125,124.352 c 10.5,0 21,3.972 29.023,12 16.051,15.972 16.051,42.074 0,58.046 -16.05,16.051 -42.074,16.051 -58.05,0 C 7,189.301 3.324,182.926 1.449,175.949 c -3.75,-14.097 0.301,-29.324 10.649,-39.676 7.949,-7.949 18.449,-11.921 29.027,-11.921 z" /></g></g></g></g></g></g></g><g
                 id="g3127"><path
                   inkscape:connector-curvature="0"
                   id="path3129"
                   style="fill:#fbbc05;fill-opacity:1;fill-rule:nonzero;stroke:none"
                   d="M 44.914,145.766 63.316,164.168 128.441,99.043 110.039,80.641 Z" /></g></g></g></g></g></g></g><style
     id="style3"
     type="text/css">
	.st0{fill:none;}
	.st1{clip-path:url(#_x3C_Rectangle_x3E__1_);}
	.st2{fill:#34A853;}
	.st3{opacity:0.3;fill:#FFFFFF;}
	.st4{clip-path:url(#SVGID_2_);fill:#FFFFFF;}
	.st5{opacity:0.13;clip-path:url(#SVGID_2_);}
	.st6{clip-path:url(#SVGID_4_);fill:#34A853;}
	.st7{fill:#4285F4;}
	.st8{clip-path:url(#SVGID_6_);fill:#FFFFFF;}
	.st9{opacity:0.13;clip-path:url(#SVGID_6_);}
	.st10{clip-path:url(#SVGID_8_);fill:#4285F4;}
	.st11{fill:#EA4335;}
	.st12{clip-path:url(#SVGID_10_);fill:#FFFFFF;}
	.st13{opacity:0.13;clip-path:url(#SVGID_10_);}
	.st14{clip-path:url(#SVGID_12_);fill:#EA4335;}
	.st15{fill:#FBBC05;}
	.st16{clip-path:url(#SVGID_14_);fill:#FFFFFF;}
	.st17{opacity:0.13;clip-path:url(#SVGID_14_);}
	.st18{clip-path:url(#SVGID_16_);fill:#FBBC05;}
	.st19{opacity:0.2;fill:none;}
	.st20{opacity:0.54;clip-path:url(#_x3C_Rectangle_x3E__1_);}
</style><style
     id="style3-1"
     type="text/css">
	.st0{fill:none;}
	.st1{clip-path:url(#_x3C_Rectangle_x3E__1_);}
	.st2{fill:#34A853;}
	.st3{opacity:0.3;fill:#FFFFFF;}
	.st4{clip-path:url(#SVGID_2_);fill:#FFFFFF;}
	.st5{opacity:0.13;clip-path:url(#SVGID_2_);}
	.st6{clip-path:url(#SVGID_4_);fill:#34A853;}
	.st7{fill:#4285F4;}
	.st8{clip-path:url(#SVGID_6_);fill:#FFFFFF;}
	.st9{opacity:0.13;clip-path:url(#SVGID_6_);}
	.st10{clip-path:url(#SVGID_8_);fill:#4285F4;}
	.st11{fill:#EA4335;}
	.st12{clip-path:url(#SVGID_10_);fill:#FFFFFF;}
	.st13{opacity:0.13;clip-path:url(#SVGID_10_);}
	.st14{clip-path:url(#SVGID_12_);fill:#EA4335;}
	.st15{fill:#FBBC05;}
	.st16{clip-path:url(#SVGID_14_);fill:#FFFFFF;}
	.st17{opacity:0.13;clip-path:url(#SVGID_14_);}
	.st18{clip-path:url(#SVGID_16_);fill:#FBBC05;}
	.st19{opacity:0.2;fill:none;}
	.st20{opacity:0.54;clip-path:url(#_x3C_Rectangle_x3E__1_);}
</style></svg>